<svg width="71" height="19" viewBox="0 0 71 19" fill="none" xmlns="http://www.w3.org/2000/svg">
<path d="M0.289062 18V0.9375H5.78516C7.29297 0.9375 8.64844 1.28125 9.85156 1.96875C11.0547 2.64844 11.9922 3.61328 12.6641 4.86328C13.3438 6.10547 13.6875 7.5 13.6953 9.04688V9.83203C13.6953 11.3945 13.3633 12.7969 12.6992 14.0391C12.043 15.2734 11.1133 16.2422 9.91016 16.9453C8.71484 17.6406 7.37891 17.9922 5.90234 18H0.289062ZM4.40234 4.11328V14.8359H5.83203C7.01172 14.8359 7.91797 14.418 8.55078 13.582C9.18359 12.7383 9.5 11.4883 9.5 9.83203V9.09375C9.5 7.44531 9.18359 6.20312 8.55078 5.36719C7.91797 4.53125 6.99609 4.11328 5.78516 4.11328H4.40234ZM15.125 11.543C15.125 10.2773 15.3711 9.15234 15.8633 8.16797C16.3555 7.17578 17.0625 6.41406 17.9844 5.88281C18.9062 5.35156 19.9883 5.08594 21.2305 5.08594C23.1289 5.08594 24.625 5.67578 25.7188 6.85547C26.8125 8.02734 27.3594 9.625 27.3594 11.6484V11.7891C27.3594 13.7656 26.8086 15.3359 25.707 16.5C24.6133 17.6562 23.1289 18.2344 21.2539 18.2344C19.4492 18.2344 18 17.6953 16.9062 16.6172C15.8125 15.5312 15.2227 14.0625 15.1367 12.2109L15.125 11.543ZM19.0742 11.7891C19.0742 12.9609 19.2578 13.8203 19.625 14.3672C19.9922 14.9141 20.5352 15.1875 21.2539 15.1875C22.6602 15.1875 23.3789 14.1055 23.4102 11.9414V11.543C23.4102 9.26953 22.6836 8.13281 21.2305 8.13281C19.9102 8.13281 19.1953 9.11328 19.0859 11.0742L19.0742 11.7891ZM34.4609 15.1875C35.0156 15.1875 35.4453 15.0391 35.75 14.7422C36.0547 14.4375 36.2031 14.0156 36.1953 13.4766H39.8984C39.8984 14.8672 39.3984 16.0078 38.3984 16.8984C37.4062 17.7891 36.125 18.2344 34.5547 18.2344C32.7109 18.2344 31.2578 17.6562 30.1953 16.5C29.1328 15.3438 28.6016 13.7422 28.6016 11.6953V11.5312C28.6016 10.25 28.8359 9.12109 29.3047 8.14453C29.7812 7.16016 30.4648 6.40625 31.3555 5.88281C32.2461 5.35156 33.3008 5.08594 34.5195 5.08594C36.168 5.08594 37.4766 5.54297 38.4453 6.45703C39.4141 7.37109 39.8984 8.60938 39.8984 10.1719H36.1953C36.1953 9.51562 36.0352 9.01172 35.7148 8.66016C35.3945 8.30859 34.9648 8.13281 34.4258 8.13281C33.4023 8.13281 32.8047 8.78516 32.6328 10.0898C32.5781 10.5039 32.5508 11.0742 32.5508 11.8008C32.5508 13.0742 32.7031 13.957 33.0078 14.4492C33.3125 14.9414 33.7969 15.1875 34.4609 15.1875Z" fill="#0E1244"/>
<path d="M47.5508 11.6484L45.8633 13.5V18H41.75V0.9375H45.8633V8.46094L47.293 6.29297L50.9727 0.9375H56.0586L50.293 8.48438L56.0586 18H51.1836L47.5508 11.6484ZM61.0859 18H57.125V5.32031H61.0859V18ZM56.8906 2.05078C56.8906 1.48828 57.0938 1.02734 57.5 0.667969C57.9062 0.308594 58.4336 0.128906 59.082 0.128906C59.7305 0.128906 60.2578 0.308594 60.6641 0.667969C61.0703 1.02734 61.2734 1.48828 61.2734 2.05078C61.2734 2.61328 61.0703 3.07422 60.6641 3.43359C60.2578 3.79297 59.7305 3.97266 59.082 3.97266C58.4336 3.97266 57.9062 3.79297 57.5 3.43359C57.0938 3.07422 56.8906 2.61328 56.8906 2.05078ZM68.1289 2.16797V5.32031H70.2148V8.0625H68.1289V13.8633C68.1289 14.3398 68.2148 14.6719 68.3867 14.8594C68.5586 15.0469 68.8984 15.1406 69.4062 15.1406C69.7969 15.1406 70.125 15.1172 70.3906 15.0703V17.8945C69.6797 18.1211 68.9375 18.2344 68.1641 18.2344C66.8047 18.2344 65.8008 17.9141 65.1523 17.2734C64.5039 16.6328 64.1797 15.6602 64.1797 14.3555V8.0625H62.5625V5.32031H64.1797V2.16797H68.1289Z" fill="#02CCC5"/>
</svg>